<svg width="24" height="24" viewBox="0 0 24 24" fill="none" xmlns="http://www.w3.org/2000/svg">
<path d="M10.1666 2.00024C14.6769 2.00024 18.3332 5.65656 18.3332 10.1668C18.3332 12.1547 17.6229 13.9767 16.4424 15.3929L22.5703 21.5206C22.8602 21.8105 22.8602 22.2806 22.5703 22.5705C22.3125 22.8282 21.9125 22.8569 21.6231 22.6564L21.5203 22.5705L15.3927 16.4426C13.9765 17.6232 12.1545 18.3334 10.1666 18.3334C5.65631 18.3334 2 14.6771 2 10.1668C2 5.65656 5.65631 2.00024 10.1666 2.00024ZM10.1666 3.48508C6.47636 3.48508 3.48484 6.47661 3.48484 10.1668C3.48484 13.8571 6.47636 16.8486 10.1666 16.8486C13.8568 16.8486 16.8484 13.8571 16.8484 10.1668C16.8484 6.47661 13.8568 3.48508 10.1666 3.48508Z" fill="white"/>
</svg>
