<svg width="113" height="113" viewBox="0 0 113 113" fill="none" xmlns="http://www.w3.org/2000/svg">
<circle cx="56.5" cy="56.5" r="55.2159" fill="white" stroke="#6949FF" stroke-width="2.56818"/>
<path d="M23.3414 64.6517L23.7135 62.4888H24.0436C24.7786 62.7229 25.42 62.84 25.9677 62.84C26.5201 62.84 26.9532 62.8048 27.2669 62.7346C28.4045 62.4818 29.0061 61.8334 29.0716 60.7894C28.3553 61.1827 27.508 61.3793 26.5295 61.3793C25.5557 61.3793 24.6639 61.185 23.854 60.7964C23.0488 60.4079 22.4823 59.8531 22.1546 59.1321C21.9767 58.7389 21.8901 58.3152 21.8947 57.8611C21.8947 57.1261 22.1031 56.4473 22.5197 55.8246C22.9411 55.1973 23.5146 54.7034 24.2402 54.3429C24.9705 53.9777 25.7688 53.7951 26.6348 53.7951C27.7537 53.7951 28.7486 54.0901 29.6194 54.68L29.6896 53.9567L33.4395 54.2516L33.0533 61.1757C33.0299 61.6719 32.8848 62.1377 32.6179 62.5731C32.1263 63.3783 31.3 64.0174 30.139 64.4902C28.978 64.9631 27.7725 65.1995 26.5225 65.1995C25.2772 65.1995 24.2168 65.0169 23.3414 64.6517ZM27.6812 55.9721C27.1522 55.9721 26.7355 56.157 26.4312 56.5268C26.1316 56.8967 25.9818 57.3204 25.9818 57.7979C25.9818 58.2707 26.1128 58.671 26.375 58.9987C26.6325 59.3264 26.9579 59.4903 27.3511 59.4903C28.0627 59.4903 28.5613 59.3124 28.8469 58.9566C29.1372 58.6008 29.2823 58.1865 29.2823 57.7136C29.2823 57.2361 29.1465 56.8265 28.875 56.4847C28.6081 56.143 28.2102 55.9721 27.6812 55.9721Z" fill="#6949FF"/>
<path d="M43.0461 59.9538C42.7512 60.4313 42.3205 60.8199 41.754 61.1195C41.1875 61.4191 40.5625 61.5689 39.879 61.5689C39.1955 61.5689 38.5986 61.4963 38.0883 61.3512C37.578 61.2108 37.1052 61.0001 36.6698 60.7192C36.2391 60.4383 35.8927 60.0591 35.6305 59.5816C35.3683 59.1041 35.2373 58.5493 35.2373 57.9173C35.2373 57.2806 35.3543 56.6954 35.5884 56.1617C35.8271 55.6233 36.1478 55.1856 36.5504 54.8485C37.3744 54.1463 38.3786 53.7951 39.563 53.7951C40.3823 53.7951 41.0518 53.8981 41.5714 54.1041C42.0911 54.3101 42.5499 54.68 42.9478 55.2137L42.9619 53.7179L46.136 53.9847L46.1149 61.1405L43.4745 61.3372L43.0461 59.9538ZM39.7597 56.6884C39.4881 57.002 39.3524 57.3789 39.3524 57.819C39.3524 58.2544 39.4858 58.6336 39.7526 58.9566C40.0195 59.2749 40.401 59.4341 40.8973 59.4341C41.3935 59.4341 41.7774 59.2937 42.049 59.0128C42.3252 58.7272 42.4633 58.3363 42.4633 57.84C42.4633 57.3438 42.3252 56.9482 42.049 56.6532C41.7727 56.3583 41.3888 56.2108 40.8973 56.2108C40.4104 56.2108 40.0312 56.37 39.7597 56.6884Z" fill="#FF981F"/>
<path d="M56.9083 61.0001C56.4542 61.178 55.89 61.3161 55.2159 61.4144C54.5464 61.5127 53.9168 61.5619 53.3269 61.5619C52.7417 61.5619 52.1893 61.494 51.6696 61.3582C50.017 60.9369 49.1907 59.9397 49.1907 58.3667C49.1907 58.3386 49.1907 58.3129 49.1907 58.2895V58.2052C49.2047 58.0694 49.2188 57.6949 49.2328 57.0816C49.2469 56.4636 49.2586 56.1242 49.268 56.0634H48.5517C48.1444 56.0634 47.8682 56.0423 47.723 56.0002L48.1584 54.392H49.4365C49.502 53.9005 49.5512 53.3457 49.584 52.7277C49.6214 52.1098 49.6495 51.7212 49.6682 51.562C51.3957 51.4029 52.7628 51.3233 53.7693 51.3233C53.7974 51.3233 53.8255 51.3233 53.8536 51.3233C53.8582 51.3982 53.8606 51.4731 53.8606 51.548L53.7272 54.4131H56.4589C56.6789 54.4131 56.8849 54.4412 57.0768 54.4974L56.7046 55.9931C56.5595 56.04 56.3067 56.0634 55.9462 56.0634H53.5937L53.5235 58.1069C53.5235 58.5563 53.6335 58.87 53.8536 59.0479C54.0783 59.2258 54.4036 59.3147 54.8297 59.3147C55.2604 59.3147 55.869 59.2024 56.6555 58.9777C56.81 58.9308 56.8989 58.9051 56.9223 58.9004C56.9364 59.0362 56.9434 59.3592 56.9434 59.8695C56.9434 60.3798 56.9317 60.7567 56.9083 61.0001Z" fill="#12D18E"/>
<path d="M62.3787 50.9862L63.1933 50.937C63.2448 51.0915 63.2706 51.3092 63.2706 51.5901C63.2706 51.871 63.2237 52.9197 63.1301 54.7361C64.3848 54.1088 65.5856 53.7951 66.7326 53.7951C67.8796 53.7951 68.8112 54.1018 69.5275 54.7151C70.2485 55.3237 70.6089 56.1008 70.6089 57.0465L70.4825 61.3021L66.248 61.3372L66.3955 57.6504C66.3955 56.775 65.8782 56.3372 64.8436 56.3372C64.0992 56.3372 63.6053 56.6556 63.3618 57.2923C63.1652 57.8073 63.0669 58.568 63.0669 59.5746V61.2318C62.8001 61.2693 62.5449 61.2927 62.3015 61.3021L58.8324 61.3161C58.8137 61.1101 58.8043 60.8831 58.8043 60.6349L59.1344 51.2671C59.5323 51.2484 60.6138 51.1547 62.3787 50.9862Z" fill="#3779FF"/>
<path d="M78.8111 56.9131C78.8064 56.473 78.7034 56.1617 78.5021 55.9791C78.3055 55.7965 78.0152 55.7052 77.6313 55.7052C77.2521 55.7052 76.9455 55.8199 76.7114 56.0493C76.4773 56.274 76.3322 56.5573 76.276 56.899L78.8111 56.9131ZM81.5638 60.7332C81.2736 60.9533 80.7563 61.1452 80.0119 61.3091C79.2675 61.4776 78.5442 61.5619 77.842 61.5619C77.1444 61.5619 76.5522 61.5291 76.0653 61.4636C75.5784 61.398 75.0962 61.281 74.6187 61.1125C74.1412 60.9392 73.7316 60.7215 73.3898 60.4594C73.0527 60.1925 72.7789 59.8484 72.5682 59.4271C72.3575 59.0011 72.2522 58.4931 72.2522 57.9032C72.2522 57.3087 72.3598 56.7633 72.5752 56.267C72.7906 55.7708 73.0691 55.3705 73.4109 55.0662C74.3612 54.2188 75.7376 53.7951 77.54 53.7951C78.3967 53.7951 79.2113 53.959 79.9838 54.2867C80.7563 54.6238 81.3064 55.1294 81.6341 55.8035C81.8213 56.1828 81.915 56.6018 81.915 57.0605L81.8307 58.2192L76.1355 58.1911C76.2479 58.6172 76.5194 58.9519 76.9501 59.1953C77.3855 59.4388 77.9777 59.5605 78.7268 59.5605C79.4759 59.5605 80.3396 59.3569 81.3181 58.9496H81.6973L81.5638 60.7332ZM84.6888 61.3723L83.9936 61.3863C83.9655 61.171 83.9514 61.0141 83.9514 60.9158C83.9514 60.9158 84.0381 58.8021 84.2113 54.5746L86.1565 54.1603L86.9711 55.5718C87.8606 54.4248 88.7524 53.8513 89.6466 53.8513C90.0164 53.8513 90.398 53.9262 90.7912 54.076C91.1892 54.2258 91.4513 54.385 91.5777 54.5536L90.8404 56.59C90.3207 56.3747 89.8128 56.267 89.3165 56.267C88.8203 56.267 88.413 56.4075 88.0946 56.6884C88.0759 56.7071 88.0572 56.7211 88.0385 56.7305L88.0244 56.7516L87.7295 61.2248L84.6888 61.3723Z" fill="black"/>
</svg>
