<svg width="88" height="18" viewBox="0 0 88 18" fill="none" xmlns="http://www.w3.org/2000/svg">
<path d="M1.85645 17.1836L2.32227 14.4766H2.73535C3.65527 14.7695 4.45801 14.916 5.14355 14.916C5.83496 14.916 6.37695 14.8721 6.76953 14.7842C8.19336 14.4678 8.94629 13.6562 9.02832 12.3496C8.13184 12.8418 7.07129 13.0879 5.84668 13.0879C4.62793 13.0879 3.51172 12.8447 2.49805 12.3584C1.49023 11.8721 0.78125 11.1777 0.371094 10.2754C0.148438 9.7832 0.0400391 9.25293 0.0458984 8.68457C0.0458984 7.76465 0.306641 6.91504 0.828125 6.13574C1.35547 5.35059 2.07324 4.73242 2.98145 4.28125C3.89551 3.82422 4.89453 3.5957 5.97852 3.5957C7.37891 3.5957 8.62402 3.96484 9.71387 4.70312L9.80176 3.79785L14.4951 4.16699L14.0117 12.833C13.9824 13.4541 13.8008 14.0371 13.4668 14.582C12.8516 15.5898 11.8174 16.3896 10.3643 16.9814C8.91113 17.5732 7.40234 17.8691 5.83789 17.8691C4.2793 17.8691 2.95215 17.6406 1.85645 17.1836ZM7.28809 6.32031C6.62598 6.32031 6.10449 6.55176 5.72363 7.01465C5.34863 7.47754 5.16113 8.00781 5.16113 8.60547C5.16113 9.19727 5.3252 9.69824 5.65332 10.1084C5.97559 10.5186 6.38281 10.7236 6.875 10.7236C7.76562 10.7236 8.38965 10.501 8.74707 10.0557C9.11035 9.61035 9.29199 9.0918 9.29199 8.5C9.29199 7.90234 9.12207 7.38965 8.78223 6.96191C8.44824 6.53418 7.9502 6.32031 7.28809 6.32031Z" fill="#6949FF"/>
<path d="M26.5186 11.3037C26.1494 11.9014 25.6104 12.3877 24.9014 12.7627C24.1924 13.1377 23.4102 13.3252 22.5547 13.3252C21.6992 13.3252 20.9521 13.2344 20.3135 13.0527C19.6748 12.877 19.083 12.6133 18.5381 12.2617C17.999 11.9102 17.5654 11.4355 17.2373 10.8379C16.9092 10.2402 16.7451 9.5459 16.7451 8.75488C16.7451 7.95801 16.8916 7.22559 17.1846 6.55762C17.4834 5.88379 17.8848 5.33594 18.3887 4.91406C19.4199 4.03516 20.6768 3.5957 22.1592 3.5957C23.1846 3.5957 24.0225 3.72461 24.6729 3.98242C25.3232 4.24023 25.8975 4.70312 26.3955 5.37109L26.4131 3.49902L30.3857 3.83301L30.3594 12.7891L27.0547 13.0352L26.5186 11.3037ZM22.4053 7.2168C22.0654 7.60938 21.8955 8.08105 21.8955 8.63184C21.8955 9.17676 22.0625 9.65137 22.3965 10.0557C22.7305 10.4541 23.208 10.6533 23.8291 10.6533C24.4502 10.6533 24.9307 10.4775 25.2705 10.126C25.6162 9.76855 25.7891 9.2793 25.7891 8.6582C25.7891 8.03711 25.6162 7.54199 25.2705 7.17285C24.9248 6.80371 24.4443 6.61914 23.8291 6.61914C23.2197 6.61914 22.7451 6.81836 22.4053 7.2168Z" fill="#FF981F"/>
<path d="M43.8682 12.6133C43.2998 12.8359 42.5938 13.0088 41.75 13.1318C40.9121 13.2549 40.124 13.3164 39.3857 13.3164C38.6533 13.3164 37.9619 13.2314 37.3115 13.0615C35.2432 12.5342 34.209 11.2861 34.209 9.31738C34.209 9.28223 34.209 9.25 34.209 9.2207V9.11523C34.2266 8.94531 34.2441 8.47656 34.2617 7.70898C34.2793 6.93555 34.2939 6.51074 34.3057 6.43457H33.4092C32.8994 6.43457 32.5537 6.4082 32.3721 6.35547L32.917 4.34277H34.5166C34.5986 3.72754 34.6602 3.0332 34.7012 2.25977C34.748 1.48633 34.7832 1 34.8066 0.800781C36.9688 0.601562 38.6797 0.501953 39.9395 0.501953C39.9746 0.501953 40.0098 0.501953 40.0449 0.501953C40.0508 0.595703 40.0537 0.689453 40.0537 0.783203L39.8867 4.36914H43.3057C43.5811 4.36914 43.8389 4.4043 44.0791 4.47461L43.6133 6.34668C43.4316 6.40527 43.1152 6.43457 42.6641 6.43457H39.7197L39.6318 8.99219C39.6318 9.55469 39.7695 9.94727 40.0449 10.1699C40.3262 10.3926 40.7334 10.5039 41.2666 10.5039C41.8057 10.5039 42.5674 10.3633 43.5518 10.082C43.7451 10.0234 43.8564 9.99121 43.8857 9.98535C43.9033 10.1553 43.9121 10.5596 43.9121 11.1982C43.9121 11.8369 43.8975 12.3086 43.8682 12.6133Z" fill="#12D18E"/>
<path d="M50.7148 0.0800781L51.7344 0.0185547C51.7988 0.211914 51.8311 0.484375 51.8311 0.835938C51.8311 1.1875 51.7725 2.5 51.6553 4.77344C53.2256 3.98828 54.7285 3.5957 56.1641 3.5957C57.5996 3.5957 58.7656 3.97949 59.6621 4.74707C60.5645 5.50879 61.0156 6.48145 61.0156 7.66504L60.8574 12.9912L55.5576 13.0352L55.7422 8.4209C55.7422 7.3252 55.0947 6.77734 53.7998 6.77734C52.8682 6.77734 52.25 7.17578 51.9453 7.97266C51.6992 8.61719 51.5762 9.56934 51.5762 10.8291V12.9033C51.2422 12.9502 50.9229 12.9795 50.6182 12.9912L46.2764 13.0088C46.2529 12.751 46.2412 12.4668 46.2412 12.1562L46.6543 0.431641C47.1523 0.408203 48.5059 0.291016 50.7148 0.0800781Z" fill="#3779FF"/>
<path d="M71.2812 7.49805C71.2754 6.94727 71.1465 6.55762 70.8945 6.3291C70.6484 6.10059 70.2852 5.98633 69.8047 5.98633C69.3301 5.98633 68.9463 6.12988 68.6533 6.41699C68.3604 6.69824 68.1787 7.05273 68.1084 7.48047L71.2812 7.49805ZM74.7266 12.2793C74.3633 12.5547 73.7158 12.7949 72.7842 13C71.8525 13.2109 70.9473 13.3164 70.0684 13.3164C69.1953 13.3164 68.4541 13.2754 67.8447 13.1934C67.2354 13.1113 66.6318 12.9648 66.0342 12.7539C65.4365 12.5371 64.9238 12.2646 64.4961 11.9365C64.0742 11.6025 63.7314 11.1719 63.4678 10.6445C63.2041 10.1113 63.0723 9.47559 63.0723 8.7373C63.0723 7.99316 63.207 7.31055 63.4766 6.68945C63.7461 6.06836 64.0947 5.56738 64.5225 5.18652C65.7119 4.12598 67.4346 3.5957 69.6904 3.5957C70.7627 3.5957 71.7822 3.80078 72.749 4.21094C73.7158 4.63281 74.4043 5.26562 74.8145 6.10938C75.0488 6.58398 75.166 7.1084 75.166 7.68262L75.0605 9.13281L67.9326 9.09766C68.0732 9.63086 68.4131 10.0498 68.9521 10.3545C69.4971 10.6592 70.2383 10.8115 71.1758 10.8115C72.1133 10.8115 73.1943 10.5566 74.4189 10.0469H74.8936L74.7266 12.2793ZM78.6377 13.0791L77.7676 13.0967C77.7324 12.8271 77.7148 12.6309 77.7148 12.5078C77.7148 12.5078 77.8232 9.8623 78.04 4.57129L80.4746 4.05273L81.4941 5.81934C82.6074 4.38379 83.7236 3.66602 84.8428 3.66602C85.3057 3.66602 85.7832 3.75977 86.2754 3.94727C86.7734 4.13477 87.1016 4.33398 87.2598 4.54492L86.3369 7.09375C85.6865 6.82422 85.0508 6.68945 84.4297 6.68945C83.8086 6.68945 83.2988 6.86523 82.9004 7.2168C82.877 7.24023 82.8535 7.25781 82.8301 7.26953L82.8125 7.2959L82.4434 12.8945L78.6377 13.0791Z" fill="black"/>
</svg>
